<svg xmlns="http://www.w3.org/2000/svg" xmlns:xlink="http://www.w3.org/1999/xlink" width="94" height="94" viewBox="0 0 94 94"><defs><filter id="a" x="0" y="0" width="94" height="94" filterUnits="userSpaceOnUse"><feOffset dy="3" input="SourceAlpha"/><feGaussianBlur stdDeviation="3" result="b"/><feFlood flood-opacity="0.161"/><feComposite operator="in" in2="b"/><feComposite in="SourceGraphic"/></filter><filter id="c" x="18.503" y="20.127" width="56.998" height="24.75" filterUnits="userSpaceOnUse"><feOffset dy="3" input="SourceAlpha"/><feGaussianBlur stdDeviation="3" result="d"/><feFlood flood-opacity="0.161"/><feComposite operator="in" in2="d"/><feComposite in="SourceGraphic"/></filter><filter id="e" x="16.255" y="28.845" width="61.491" height="45.028" filterUnits="userSpaceOnUse"><feOffset dy="3" input="SourceAlpha"/><feGaussianBlur stdDeviation="3" result="f"/><feFlood flood-opacity="0.161"/><feComposite operator="in" in2="f"/><feComposite in="SourceGraphic"/></filter></defs><g transform="translate(-771 -938)"><g transform="matrix(1, 0, 0, 1, 771, 938)" filter="url(#a)"><g transform="translate(9 6)" fill="#fff" stroke="#707070" stroke-width="1"><circle cx="38" cy="38" r="38" stroke="none"/><circle cx="38" cy="38" r="37.5" fill="none"/></g></g><g transform="translate(794.003 959.627)"><g transform="matrix(1, 0, 0, 1, -23, -21.63)" filter="url(#c)"><path d="M43.5,8.367c0-.935-.955-1.617-2.316-1.617H21.45a.946.946,0,0,1-.619-.169L18.545,5l-.02-.014A2.773,2.773,0,0,0,16.768,4.5H7.008c-1.4,0-2.508.724-2.508,1.617V11.25h39Z" transform="translate(23 21.63)" fill="#1a202c"/></g><g transform="matrix(1, 0, 0, 1, -23, -21.63)" filter="url(#e)"><path d="M5.356,13.219H4.551a2.052,2.052,0,0,0-2.282,2.526c.175,2,2.282,21.9,2.282,21.9.262,1.85,1.136,2.6,2.427,2.6H41.206c1.233,0,2.039-.811,2.233-2.6,0,0,2.156-19.221,2.292-21.363s-.864-3.067-2.292-3.067H5.356Z" transform="translate(23 21.63)" fill="#1a202c"/></g></g></g></svg>