<svg xmlns="http://www.w3.org/2000/svg" xmlns:xlink="http://www.w3.org/1999/xlink" width="94" height="94" viewBox="0 0 94 94"><defs><filter id="a" x="0" y="0" width="94" height="94" filterUnits="userSpaceOnUse"><feOffset dy="3" input="SourceAlpha"/><feGaussianBlur stdDeviation="3" result="b"/><feFlood flood-opacity="0.161"/><feComposite operator="in" in2="b"/><feComposite in="SourceGraphic"/></filter><filter id="c" x="16.59" y="15.783" width="60.82" height="62.433" filterUnits="userSpaceOnUse"><feOffset dy="3" input="SourceAlpha"/><feGaussianBlur stdDeviation="3" result="d"/><feFlood flood-opacity="0.161"/><feComposite operator="in" in2="d"/><feComposite in="SourceGraphic"/></filter></defs><g transform="translate(-1267 -938)"><g transform="translate(496)"><g transform="matrix(1, 0, 0, 1, 771, 938)" filter="url(#a)"><g transform="translate(9 6)" fill="#fff" stroke="#707070" stroke-width="1"><circle cx="38" cy="38" r="38" stroke="none"/><circle cx="38" cy="38" r="37.5" fill="none"/></g></g></g><g transform="matrix(1, 0, 0, 1, 1267, 938)" filter="url(#c)"><path d="M28.289,4.5H23.531V29.185h4.758Zm11.49,5.357L36.4,13.362a17.33,17.33,0,0,1,6.161,13.355C42.562,36.27,35.117,44,25.91,44S9.258,36.27,9.258,26.717A17.478,17.478,0,0,1,15.4,13.337L12.041,9.857A22.394,22.394,0,0,0,4.5,26.717c0,12.269,9.587,22.217,21.41,22.217s21.41-9.948,21.41-22.217A22.394,22.394,0,0,0,39.779,9.857Z" transform="translate(21.09 17.28)" fill="#1a202c"/></g></g></svg>