<svg xmlns="http://www.w3.org/2000/svg" xmlns:xlink="http://www.w3.org/1999/xlink" width="94" height="94" viewBox="0 0 94 94"><defs><filter id="a" x="0" y="0" width="94" height="94" filterUnits="userSpaceOnUse"><feOffset dy="3" input="SourceAlpha"/><feGaussianBlur stdDeviation="3" result="b"/><feFlood flood-opacity="0.161"/><feComposite operator="in" in2="b"/><feComposite in="SourceGraphic"/></filter><filter id="c" x="15.5" y="20" width="63" height="54" filterUnits="userSpaceOnUse"><feOffset dy="3" input="SourceAlpha"/><feGaussianBlur stdDeviation="3" result="d"/><feFlood flood-opacity="0.161"/><feComposite operator="in" in2="d"/><feComposite in="SourceGraphic"/></filter></defs><g transform="translate(-670 -938)"><g transform="matrix(1, 0, 0, 1, 670, 938)" filter="url(#a)"><g transform="translate(9 6)" fill="#fff" stroke="#707070" stroke-width="1"><circle cx="38" cy="38" r="38" stroke="none"/><circle cx="38" cy="38" r="37.5" fill="none"/></g></g><g transform="matrix(1, 0, 0, 1, 670, 938)" filter="url(#c)"><path d="M42.75,0H11.25A2.25,2.25,0,0,0,9,2.25V9H20.25V4.5h13.5V27h9A2.25,2.25,0,0,0,45,24.75V2.25A2.25,2.25,0,0,0,42.75,0ZM16.313,7.242a.633.633,0,0,1-.633.633H13.57a.633.633,0,0,1-.633-.633V5.133A.633.633,0,0,1,13.57,4.5H15.68a.633.633,0,0,1,.633.633Zm24.75,14.625a.633.633,0,0,1-.633.633H38.32a.633.633,0,0,1-.633-.633V19.758a.633.633,0,0,1,.633-.633H40.43a.633.633,0,0,1,.633.633Zm0-7.312a.633.633,0,0,1-.633.633H38.32a.633.633,0,0,1-.633-.633V12.445a.633.633,0,0,1,.633-.633H40.43a.633.633,0,0,1,.633.633Zm0-7.312a.633.633,0,0,1-.633.633H38.32a.633.633,0,0,1-.633-.633V5.133A.633.633,0,0,1,38.32,4.5H40.43a.633.633,0,0,1,.633.633ZM29.25,11.25h-27A2.25,2.25,0,0,0,0,13.5V33.75A2.25,2.25,0,0,0,2.25,36h27a2.25,2.25,0,0,0,2.25-2.25V13.5A2.25,2.25,0,0,0,29.25,11.25Zm-22.5,4.5A2.25,2.25,0,1,1,4.5,18a2.25,2.25,0,0,1,2.25-2.25ZM27,31.5H4.5V29.25L9,24.75,11.25,27l9-9L27,24.75Z" transform="translate(24.5 26)" fill="#1a202c"/></g></g></svg>