<svg xmlns="http://www.w3.org/2000/svg" xmlns:xlink="http://www.w3.org/1999/xlink" width="94" height="94" viewBox="0 0 94 94"><defs><filter id="a" x="0" y="0" width="94" height="94" filterUnits="userSpaceOnUse"><feOffset dy="3" input="SourceAlpha"/><feGaussianBlur stdDeviation="3" result="b"/><feFlood flood-opacity="0.161"/><feComposite operator="in" in2="b"/><feComposite in="SourceGraphic"/></filter><filter id="c" x="17" y="20" width="54" height="54.001" filterUnits="userSpaceOnUse"><feOffset dy="3" input="SourceAlpha"/><feGaussianBlur stdDeviation="3" result="d"/><feFlood flood-opacity="0.161"/><feComposite operator="in" in2="d"/><feComposite in="SourceGraphic"/></filter></defs><g transform="translate(-569 -938)"><g transform="matrix(1, 0, 0, 1, 569, 938)" filter="url(#a)"><g transform="translate(9 6)" fill="#fff" stroke="#707070" stroke-width="1"><circle cx="38" cy="38" r="38" stroke="none"/><circle cx="38" cy="38" r="37.5" fill="none"/></g></g><g transform="matrix(1, 0, 0, 1, 569, 938)" filter="url(#c)"><path d="M36,2.251A2.248,2.248,0,0,0,33.074.105L10.575,6.75A2.249,2.249,0,0,0,9,8.895V27.276A9.727,9.727,0,0,0,6.75,27C3.022,27,0,29.014,0,31.5S3.022,36,6.75,36s6.75-2.014,6.75-4.5V15.069l18-5.275V22.776a9.727,9.727,0,0,0-2.25-.276c-3.728,0-6.75,2.014-6.75,4.5s3.022,4.5,6.75,4.5S36,29.486,36,27V2.251Z" transform="translate(26 26)" fill="#1a202c"/></g></g></svg>