<svg xmlns="http://www.w3.org/2000/svg" xmlns:xlink="http://www.w3.org/1999/xlink" width="94" height="94" viewBox="0 0 94 94"><defs><filter id="a" x="0" y="0" width="94" height="94" filterUnits="userSpaceOnUse"><feOffset dy="3" input="SourceAlpha"/><feGaussianBlur stdDeviation="3" result="b"/><feFlood flood-opacity="0.161"/><feComposite operator="in" in2="b"/><feComposite in="SourceGraphic"/></filter><filter id="c" x="19.059" y="18.112" width="55.882" height="57.776" filterUnits="userSpaceOnUse"><feOffset dy="3" input="SourceAlpha"/><feGaussianBlur stdDeviation="3" result="d"/><feFlood flood-opacity="0.161"/><feComposite operator="in" in2="d"/><feComposite in="SourceGraphic"/></filter></defs><g transform="translate(-863 -938)"><g transform="translate(92)"><g transform="matrix(1, 0, 0, 1, 771, 938)" filter="url(#a)"><g transform="translate(9 6)" fill="#fff" stroke="#707070" stroke-width="1"><circle cx="38" cy="38" r="38" stroke="none"/><circle cx="38" cy="38" r="37.5" fill="none"/></g></g></g><g transform="matrix(1, 0, 0, 1, 863, 938)" filter="url(#c)"><path d="M5.349,11.255A3.755,3.755,0,0,0,3,14.759V37.488a3.787,3.787,0,0,0,3.788,3.788H37.094a3.787,3.787,0,0,0,3.788-3.788V14.759a3.775,3.775,0,0,0-3.788-3.788H14.933L30.578,4.644,29.29,1.5ZM12.47,37.488a5.682,5.682,0,1,1,5.682-5.682A5.675,5.675,0,0,1,12.47,37.488ZM37.094,22.335H33.306V18.547H29.517v3.788H6.788V14.759H37.094Z" transform="translate(25.06 22.61)" fill="#1a202c"/></g></g></svg>