<svg xmlns="http://www.w3.org/2000/svg" xmlns:xlink="http://www.w3.org/1999/xlink" width="94" height="94" viewBox="0 0 94 94"><defs><filter id="a" x="0" y="0" width="94" height="94" filterUnits="userSpaceOnUse"><feOffset dy="3" input="SourceAlpha"/><feGaussianBlur stdDeviation="3" result="b"/><feFlood flood-opacity="0.161"/><feComposite operator="in" in2="b"/><feComposite in="SourceGraphic"/></filter><filter id="c" x="17.217" y="16.899" width="59.567" height="60.201" filterUnits="userSpaceOnUse"><feOffset dy="3" input="SourceAlpha"/><feGaussianBlur stdDeviation="3" result="d"/><feFlood flood-opacity="0.161"/><feComposite operator="in" in2="d"/><feComposite in="SourceGraphic"/></filter></defs><g transform="translate(-1166 -938)"><g transform="translate(395)"><g transform="matrix(1, 0, 0, 1, 771, 938)" filter="url(#a)"><g transform="translate(9 6)" fill="#fff" stroke="#707070" stroke-width="1"><circle cx="38" cy="38" r="38" stroke="none"/><circle cx="38" cy="38" r="37.5" fill="none"/></g></g></g><g transform="matrix(1, 0, 0, 1, 1166, 938)" filter="url(#c)"><path d="M40.069,26.169a16.243,16.243,0,0,0,.15-2.068,16.243,16.243,0,0,0-.15-2.068l4.508-3.482a1.056,1.056,0,0,0,.256-1.35L40.561,9.9a1.08,1.08,0,0,0-1.3-.464l-5.32,2.11a15.659,15.659,0,0,0-3.611-2.068l-.812-5.592A1.038,1.038,0,0,0,28.467,3H19.921a1.038,1.038,0,0,0-1.047.886l-.812,5.592a16.467,16.467,0,0,0-3.611,2.068l-5.32-2.11a1.048,1.048,0,0,0-1.3.464L3.554,17.2a1.032,1.032,0,0,0,.256,1.35l4.508,3.482a16.53,16.53,0,0,0-.15,2.068,16.53,16.53,0,0,0,.15,2.068L3.811,29.65A1.056,1.056,0,0,0,3.554,31l4.273,7.3a1.08,1.08,0,0,0,1.3.464l5.32-2.11a15.659,15.659,0,0,0,3.611,2.068l.812,5.592a1.038,1.038,0,0,0,1.047.886h8.547a1.038,1.038,0,0,0,1.047-.886l.812-5.592a16.466,16.466,0,0,0,3.611-2.068l5.32,2.11a1.048,1.048,0,0,0,1.3-.464L44.834,31a1.056,1.056,0,0,0-.256-1.35l-4.508-3.482ZM24.194,31.486A7.386,7.386,0,1,1,31.672,24.1,7.44,7.44,0,0,1,24.194,31.486Z" transform="translate(22.81 19.9)" fill="#1a202c"/></g></g></svg>